<svg xmlns="http://www.w3.org/2000/svg" version="1.1" xmlns:xlink="http://www.w3.org/1999/xlink" xmlns:svgjs="http://svgjs.com/svgjs" width="1440" height="560" preserveAspectRatio="none" viewBox="0 0 1440 560"><g mask="url(&quot;#SvgjsMask1001&quot;)" fill="none"><rect width="1440" height="560" x="0" y="0" fill="rgba(2, 30, 52, 1)"></rect><path d="M0,710.807C130.889,748.105,289.146,694.734,383.353,596.509C475.359,500.579,426.183,340.495,474.081,216.505C517.767,103.418,656.744,27.599,649.882,-93.439C643.022,-214.446,522.686,-292.635,440.182,-381.42C360.568,-467.094,285.42,-558.847,176.891,-602.435C61.978,-648.587,-68.029,-671.061,-185.818,-632.84C-302.372,-595.02,-400.762,-505.082,-457.633,-396.541C-509.457,-297.632,-463.823,-179.489,-481.152,-69.179C-498.809,43.223,-606.803,152.036,-560.109,255.793C-513.459,359.454,-352.908,340.171,-264.678,411.846C-159.238,497.502,-130.647,673.578,0,710.807" fill="#02182a"></path><path d="M1440 999.9590000000001C1532.482 1008.489 1635.35 1035.7269999999999 1712.517 984.0450000000001 1789.568 932.441 1799.069 825.5889999999999 1830.58 738.3720000000001 1859.467 658.418 1904.6689999999999 579.001 1889.048 495.437 1873.634 412.981 1804.4470000000001 355.13800000000003 1747.437 293.605 1692.273 234.06400000000002 1639.411 168.76299999999998 1562.46 142.93900000000002 1484.101 116.64299999999997 1399.9470000000001 130.54399999999998 1319.624 150.036 1236.049 170.317 1148.498 193.64299999999997 1090.781 257.4 1032.579 321.693 1028.587 413.988 1005.101 497.471 977.7370000000001 594.74 900.984 695.0889999999999 941.621 787.602 982.192 879.9639999999999 1105.1770000000001 897.0409999999999 1197.983 936.585 1276.287 969.95 1355.244 992.1410000000001 1440 999.9590000000001" fill="#02243e"></path></g><defs><mask id="SvgjsMask1001"><rect width="1440" height="560" fill="#ffffff"></rect></mask></defs></svg>